<?xml version="1.0" standalone="no"?>
<!DOCTYPE svg PUBLIC "-//W3C//DTD SVG 20010904//EN"
 "http://www.w3.org/TR/2001/REC-SVG-20010904/DTD/svg10.dtd">
<svg version="1.0" xmlns="http://www.w3.org/2000/svg"
 width="879.000000pt" height="879.000000pt" viewBox="0 0 879.000000 879.000000"
 preserveAspectRatio="xMidYMid meet">
<metadata>
Created by potrace 1.11, written by Peter Selinger 2001-2013
</metadata>
<g transform="translate(0.000000,879.000000) scale(0.100000,-0.100000)"
fill="#000000" stroke="none">
<path d="M130 6361 c0 -6 16 -70 35 -143 20 -73 51 -194 71 -268 19 -74 44
-169 56 -210 11 -41 21 -84 24 -94 2 -10 8 -33 13 -50 6 -17 28 -101 50 -186
23 -85 61 -231 86 -325 25 -93 47 -177 49 -185 6 -24 173 -654 221 -835 15
-55 35 -131 45 -170 10 -38 33 -124 50 -190 77 -287 91 -341 94 -355 2 -8 27
-100 54 -205 136 -512 202 -764 202 -770 0 -3 134 -4 297 -3 l297 3 68 275
c37 151 115 467 173 702 58 236 108 436 110 445 2 10 29 119 60 243 31 124 58
232 60 240 2 8 56 227 120 485 64 259 119 481 121 495 3 14 9 40 15 58 6 18
12 39 13 45 5 28 70 292 73 296 6 9 16 -9 24 -46 4 -21 22 -92 39 -158 28
-111 317 -1251 325 -1285 2 -8 20 -78 40 -155 20 -77 38 -147 39 -155 16 -68
173 -685 192 -758 14 -51 27 -100 29 -110 2 -9 22 -91 45 -182 23 -91 47 -183
52 -205 12 -51 13 -55 38 -149 11 -43 20 -80 20 -82 0 -3 136 -3 302 -2 l301
3 18 65 c9 36 42 162 73 280 31 118 79 302 107 409 28 107 52 203 54 213 2 11
7 28 10 38 3 10 8 27 10 37 2 10 22 86 44 168 21 83 64 247 95 365 30 118 76
294 101 390 25 96 47 182 49 190 2 8 20 76 39 150 20 74 54 207 77 295 23 88
77 295 120 460 43 165 100 381 125 480 25 99 58 223 71 275 14 52 27 102 29
110 2 8 6 27 10 43 l7 27 -263 -2 -263 -3 -162 -655 c-90 -360 -213 -855 -274
-1100 -61 -245 -112 -454 -115 -465 -2 -11 -27 -110 -55 -220 -27 -110 -52
-209 -55 -220 -9 -42 -14 -63 -34 -141 -12 -45 -24 -91 -26 -103 -9 -40 -13
-56 -35 -141 -12 -47 -23 -92 -25 -100 -12 -55 -48 -190 -51 -188 -2 3 -217
853 -229 908 -12 55 -197 801 -205 825 -5 17 -11 41 -14 55 -3 14 -10 43 -16
65 -6 22 -14 58 -20 80 -5 22 -14 60 -20 85 -7 25 -13 52 -15 60 -2 8 -8 35
-15 60 -7 25 -13 52 -15 60 -2 8 -24 98 -50 200 -26 102 -48 192 -50 200 -2 8
-13 53 -25 100 -11 47 -23 96 -26 108 -3 13 -12 49 -20 80 -9 32 -20 75 -25
97 -5 22 -13 58 -19 80 -6 22 -13 49 -16 60 -3 11 -7 29 -9 40 -3 11 -13 54
-23 95 l-18 75 -279 3 c-153 1 -276 0 -272 -4 3 -3 2 -17 -3 -30 -6 -14 -12
-35 -14 -47 -5 -29 -343 -1392 -356 -1437 -8 -27 -165 -659 -185 -740 -1 -8
-13 -55 -25 -105 -12 -49 -23 -97 -25 -105 -2 -8 -25 -98 -50 -200 -26 -102
-48 -192 -50 -200 -2 -8 -8 -35 -15 -60 -7 -25 -14 -53 -16 -62 -2 -10 -6 -26
-8 -36 -2 -9 -9 -37 -16 -62 -7 -25 -14 -54 -17 -65 -2 -11 -5 -24 -7 -30 -1
-5 -9 -36 -16 -69 -12 -50 -15 -55 -22 -35 -7 19 -102 388 -113 439 -2 8 -24
96 -50 195 -25 99 -48 187 -50 195 -18 73 -105 420 -154 610 -131 518 -383
1516 -388 1539 -2 14 -6 28 -8 31 -2 4 -7 20 -10 36 -3 16 -18 76 -33 134
l-27 105 -273 3 c-169 1 -272 -1 -272 -7z"/>
<path d="M5580 4370 l0 -2000 248 0 249 0 1 1768 c0 972 1 1774 1 1782 1 16
32 -37 136 -235 37 -71 82 -157 100 -190 18 -33 56 -105 85 -160 29 -55 70
-131 90 -170 21 -38 61 -115 90 -170 29 -55 72 -136 95 -180 23 -44 64 -120
90 -170 26 -49 60 -112 75 -140 15 -27 53 -99 85 -160 32 -60 72 -137 90 -170
18 -33 55 -103 82 -155 91 -172 145 -274 178 -335 18 -33 65 -123 105 -200 40
-77 81 -153 90 -170 10 -16 44 -79 75 -140 32 -60 72 -137 90 -170 18 -33 79
-148 135 -255 57 -107 125 -235 151 -285 l48 -90 330 -3 331 -2 1 187 c0 247
0 3750 0 3786 l-1 27 -249 0 -250 0 1 -1621 c0 -891 -2 -1622 -4 -1624 -2 -2
-29 47 -61 108 -32 62 -78 150 -103 197 -25 47 -73 137 -106 200 -34 63 -75
142 -93 175 -18 33 -56 105 -85 160 -29 55 -70 132 -90 170 -37 68 -83 157
-190 360 -108 205 -143 271 -170 320 -15 28 -53 100 -85 160 -62 118 -125 237
-185 350 -44 82 -107 201 -180 340 -50 96 -84 160 -169 318 -21 39 -62 117
-91 172 -29 55 -66 126 -83 158 l-31 57 -413 0 -413 0 0 -2000z"/>
</g>
</svg>
